<!-- Generated by SVGMaker - https://svgmaker.io -->
<!-- Prompt: I'd like it to look down a bit, and let's make it a bit more complex but the same basic theme, and can you add some dimentionality to his face like he's looking into the foreground a little? -->
<!-- Quality: medium -->
<!-- Type: edit -->
<!-- Created: 2025-11-18T02:45:51.477Z -->
<svg version="1.1" xmlns="http://www.w3.org/2000/svg" style="display: block;" viewBox="0 0 2048 2048" width="1024" height="1024" preserveAspectRatio="none">
<path transform="translate(0,0)" fill="rgb(0,67,132)" d="M 996.412 151.669 C 1476.74 136.021 1878.7 512.952 1893.92 993.297 C 1909.14 1473.64 1531.85 1875.26 1051.5 1890.06 C 571.741 1904.83 170.734 1528.12 155.532 1048.38 C 140.331 568.64 516.685 167.297 996.412 151.669 z"/>
<path transform="translate(0,0)" fill="rgb(244,244,244)" d="M 989.999 261.575 C 1000.5 260.506 1017.65 260.619 1028.23 260.558 C 1226.43 260.008 1416.85 337.619 1558.19 476.558 C 1699.18 616.405 1786.17 810.621 1786.91 1010.12 C 1788.96 1186.41 1729.45 1357.9 1618.64 1495.04 C 1597.56 1521.11 1577.23 1541.66 1553.81 1565.25 C 1544.63 1511.28 1506.02 1439.72 1476.32 1392.53 C 1453.14 1355.71 1414.11 1318.98 1381.69 1290.62 C 1376.62 1286.19 1371.74 1282.5 1367.44 1277.14 C 1378.9 1284.58 1390.38 1293.26 1401.97 1300.87 C 1463.72 1341.43 1545.76 1397.81 1574.09 1468.72 C 1569.71 1397.65 1545.11 1349.83 1499.18 1296.42 C 1480.96 1275.23 1467.64 1259.91 1446.37 1240.49 C 1413.55 1210.53 1375.66 1176.26 1351.58 1138.8 C 1331.89 1108.18 1320.01 1066 1328.33 1029.86 C 1333.58 1007.05 1345.63 987.969 1365.62 975.524 C 1398.45 955.073 1440.69 950.907 1477.62 959.816 C 1498.04 964.744 1549.48 982.341 1558.9 1001.02 C 1573.02 1029.02 1577.57 1069.09 1570.06 1099.38 C 1586.38 1091.98 1608.86 1071.14 1619.53 1057 C 1713.57 932.344 1699.38 770.637 1577.4 671.526 C 1555.19 652.832 1521.12 632.477 1494.5 621.276 C 1499.04 608.094 1498.55 599.249 1493.38 586.045 C 1464.85 513.096 1363.99 449.608 1296.53 418.102 C 1197.37 371.859 1090.73 355.713 982.095 359.321 C 914.73 361.558 861.974 372.665 798.45 396.228 C 637.149 455.693 505.721 576.233 432.565 731.803 C 459.828 724.639 475.339 712.316 507.129 709.615 C 499.482 718.811 489.738 728.645 481.669 737.778 C 468.2 753.139 455.414 769.084 443.346 785.568 C 383.958 868.157 346.939 964.7 335.883 1065.82 C 332.153 1102.21 332.61 1130.46 333.073 1167 C 347.778 1145.53 374.027 1100.93 389.347 1083.36 C 354.621 1178.6 346.14 1291.63 362.276 1391.55 C 321.301 1325.7 284.6 1227.27 270.976 1150.98 C 266.507 1125.96 263.88 1092.22 262.113 1066.38 C 250.107 868.477 316.48 673.806 446.879 524.46 C 563.737 389.58 724.123 299.859 900.214 270.863 C 928.32 266.173 961.511 263.528 989.999 261.575 z"/>
<path transform="translate(0,0)" fill="rgb(244,244,244)" d="M 1003.85 418.433 C 1033.21 416.616 1064.07 418.749 1093.33 421.703 C 1197.62 432.23 1297.8 468.728 1381.64 532.091 C 1409.01 552.775 1428.79 570.761 1437.88 604.782 C 1418.61 623.018 1404.73 629.288 1379.02 633.712 C 1371.47 597.863 1350.69 589.885 1319.52 578.137 C 1325.5 585.579 1346.21 612.094 1342.65 621.382 C 1338.73 622.849 1330.57 621.194 1326.39 620.285 C 1275.81 609.285 1228.5 584.844 1181.94 562.859 C 1111.29 529.435 1030.85 506.833 952.17 515.698 C 913.453 520.06 876.533 531.965 840.114 545.113 C 877.788 556.219 900.731 566.668 932.47 590.207 C 883.923 581.014 854.962 593.781 808.122 594.3 C 837.263 605.453 863.224 617.688 888.711 635.824 C 936.981 670.172 966.627 701.469 1022.25 724.338 C 997.818 694.749 992.646 683.859 976.203 649.836 C 1039.63 710.14 1044.63 730.001 1133.87 761.556 C 1084.31 757.281 1019.8 747.159 970.852 736.633 C 1003.49 754.522 1027.45 767.15 1063.83 776.954 C 1071.78 779.097 1106.25 785.587 1109.5 787.241 L 1108.49 787.806 C 1089.06 788.125 1056.66 782.967 1036.54 780.73 C 969.005 773.223 902.181 758.003 839.785 730.674 C 815.648 720.103 792.018 707.655 767.984 696.222 C 798.777 750.636 863.077 775.011 918.63 794.344 C 808.791 804.359 700.699 815.453 615.921 893.99 C 604.356 905.839 595.922 917.143 585.839 930.244 C 591.781 927.782 598.424 924.351 604.252 921.486 C 650.874 898.569 701.78 884.079 754.348 891.944 C 619.792 951.767 514.359 1074.79 482.354 1219.54 C 477.635 1240.89 475.005 1260.94 472.805 1282.66 C 453.705 1214.96 460.758 1124.59 481.207 1057.45 C 508.76 966.993 560.993 878.862 637.385 821.416 C 659.437 804.833 677.315 795.131 701.37 782.377 C 681.816 786.558 661.498 787.607 641.36 793.362 C 582.923 810.061 528.869 844.048 483.521 883.973 C 468.763 896.965 455.975 912.828 442.047 926.296 C 452.686 893.55 491.359 829.758 512.827 802.784 C 583.137 714.441 676.756 634.685 791.535 618.901 C 745.586 611.456 686.957 611.873 640.563 615.966 C 628.58 617.023 612.753 621.132 599.505 622.754 C 660.51 570.952 776.841 524.037 852.018 498.4 C 879.546 489.012 911.824 482.012 939.477 472.221 C 939.849 472.065 940.222 471.909 940.594 471.754 C 931.679 472.025 922.595 471.714 913.747 471.264 C 869.635 469.02 825.789 471.33 782.247 478.824 C 770.531 480.84 758.934 483.662 747.069 485.474 C 759.093 477.497 778.106 469.899 791.88 464.492 C 859.637 437.964 931.192 422.416 1003.85 418.433 z"/>
<path transform="translate(0,0)" fill="rgb(244,244,244)" d="M 908.613 974.383 C 911.609 973.774 910.892 973.939 914.052 974.109 C 911.884 977.16 900.51 982.158 896.662 984.451 C 807.389 1037.63 733.38 1127.31 702.058 1226.79 C 696.243 1245.26 693.518 1262.86 690.935 1281.31 C 725.757 1215.38 801.585 1149.18 862.034 1106.7 C 801.42 1213.32 816.48 1312.93 920.307 1383.61 C 897.204 1345.4 883.532 1274.17 889.715 1230.65 C 899.908 1158.88 948.297 1103.82 1003.37 1061.16 C 998.317 1068.77 993.558 1076.57 989.106 1084.55 C 928.956 1194.57 940.673 1303.85 998.508 1410.84 C 1006.33 1425.31 1015.38 1438.56 1023.4 1452.67 C 1044.09 1489.13 1061.51 1525.42 1073.21 1565.77 C 1088.96 1627.54 1096.52 1662.4 1080.93 1725.38 C 1069.03 1568.82 919.051 1518.16 829.883 1411.56 C 791.959 1366.22 764.763 1329.73 745.725 1273.05 C 721.952 1332.41 707.466 1379.51 713.137 1444.56 C 717.582 1495.53 727.151 1529.79 746.609 1576.55 L 733.979 1567.09 C 612.454 1475.02 525.35 1267.05 628.287 1133.03 C 694.651 1046.63 801.315 988.864 908.613 974.383 z"/>
<path transform="translate(0,0)" fill="rgb(244,244,244)" d="M 1433.72 650.402 C 1441.62 650.244 1449.51 651.14 1457.18 653.067 C 1474.96 657.424 1484.48 663.06 1500.41 670.272 C 1545.53 690.7 1580.05 717.239 1606.1 760.209 C 1635.72 809.07 1641.96 867.449 1632.65 923.155 C 1630.68 934.916 1626.28 950.372 1623.29 962.322 C 1622.48 905.665 1597.51 851.019 1563.74 806.582 C 1565.18 830.018 1579.48 878.51 1560.88 896.384 C 1540.06 905.09 1484.62 884.674 1463.57 876.248 C 1368.13 839.073 1293.19 830.075 1191.09 828.18 C 1161.85 827.637 1108.46 829.363 1080.77 826.681 L 1079.43 826.545 C 1118.26 817.961 1154.83 808.661 1193.26 797.614 C 1223.99 788.782 1253.87 780.828 1283.92 768.612 C 1322.03 753.122 1366.44 730.045 1390.78 695.849 C 1397.27 686.73 1405.34 666.393 1409.85 655.803 C 1418.24 652.452 1424.88 651.304 1433.72 650.402 z"/>
<path transform="translate(0,0)" fill="rgb(0,67,132)" d="M 1460.48 706.224 C 1483.99 705.46 1481.84 723.86 1470.92 738.207 C 1452.26 762.702 1413.11 759.236 1384.25 761.937 L 1360.6 762.886 C 1393.7 748.069 1428.76 711.687 1460.48 706.224 z"/>
<path transform="translate(0,0)" fill="rgb(0,67,132)" d="M 1428.57 770.383 L 1429.67 770.409 L 1429.74 771.662 C 1407.1 792.477 1383.6 791.226 1355.24 793.818 C 1354.1 793.701 1354.85 793.839 1353.1 793.033 C 1354.37 791.894 1354.13 791.794 1355.6 791.464 C 1382 785.524 1401.3 774.094 1428.57 770.383 z"/>
<path transform="translate(0,0)" fill="rgb(0,45,90)" d="M 923.83 615.333 C 949.062 600.715 1063.96 559.476 1090.13 566.63 C 1148.66 582.626 1230.89 639.587 1294.06 654.446 C 1300.4 655.939 1349.98 667.894 1351.49 669.239 C 1351.56 687.666 1291.24 684.173 1278.22 689.761 C 1263.72 695.987 1255.57 705.095 1242.49 713.494 C 1223.27 725.462 1213.9 726.542 1192.17 731.534 C 1187.59 732.587 1181.99 735.307 1176.32 736.653 L 1175.68 735.54 C 1209.55 720.625 1219.4 699.03 1222.18 664.071 C 1215.98 659.147 1210.34 656.045 1203.26 652.493 C 1203.18 656.175 1203.62 661.045 1201.69 663.916 C 1205.48 693.98 1176.12 721.665 1147.75 722.537 C 1074.11 724.799 1048.81 650.767 1092.9 598.164 C 1088.46 596.519 1078.07 592.013 1074.69 594.46 C 1048.16 613.675 1040.52 664.571 1056.37 692.53 C 1059.86 698.684 1062.36 702.745 1065.43 707.637 L 1064.29 707.88 C 1037.05 684.696 1011.12 648.689 983.916 625.866 C 979.444 622.114 932.421 615.901 923.83 615.333 z"/>
<path transform="translate(0,0)" fill="rgb(244,244,244)" d="M 1201.69 663.916 C 1205.48 693.98 1176.12 721.665 1147.75 722.537 C 1074.11 724.799 1048.81 650.767 1092.9 598.164 C 1100.68 601.781 1108.49 605.333 1116.33 608.818 C 1105.85 624.586 1099.2 640.079 1103.07 659.596 C 1105.82 673.19 1114.06 685.043 1125.85 692.347 C 1137.64 699.518 1151.78 701.747 1165.2 698.55 C 1183.81 693.999 1194.53 680.622 1201.69 663.916 z"/>
<path transform="translate(0,0)" fill="rgb(244,244,244)" d="M 1174.5 638.783 C 1178.37 638.477 1181.8 641.252 1182.3 645.097 C 1182.81 648.942 1180.22 652.512 1176.41 653.222 C 1173.76 653.716 1171.05 652.706 1169.37 650.596 C 1167.69 648.486 1167.31 645.622 1168.39 643.148 C 1169.46 640.674 1171.81 638.995 1174.5 638.783 z"/>
<path transform="translate(0,0)" fill="rgb(244,244,244)" d="M 1009.97 1192.68 C 1018.27 1209.65 1020.98 1231.37 1030.75 1248.66 C 1037.7 1260.97 1044.55 1269.57 1052.77 1280.67 C 1078.15 1314.95 1109.97 1342.28 1138.87 1373.3 C 1196.96 1438.19 1252.71 1521.48 1264.89 1609.52 C 1266.96 1624.47 1266.52 1661.12 1265.78 1677.03 L 1264.7 1677.86 C 1263.4 1674.17 1263.64 1659.02 1263.03 1653.76 C 1259.17 1620.38 1247.25 1587.83 1233.27 1557.6 C 1213.7 1519.86 1192.83 1490.53 1165.84 1458.13 C 1177.97 1499.28 1191.44 1554.66 1183.97 1597.38 C 1173.1 1575.37 1159.6 1543 1147.4 1523.11 C 1064.57 1387.97 1012.02 1358.9 1009.97 1192.68 z"/>
<path transform="translate(0,0)" fill="rgb(0,45,90)" d="M 844.922 1505.99 C 858.012 1516.78 874.994 1527.38 889.378 1539.05 C 954.661 1592.02 1020.71 1655.91 1046.76 1738.24 C 1053.83 1760.6 1055.71 1780.41 1058.27 1803.16 C 1056.4 1802.06 1054.59 1800.88 1052.83 1799.61 C 1035.25 1786.98 1014.2 1765.94 998.654 1751.24 C 941.94 1697.62 896.126 1637.61 865.566 1565.5 C 857.859 1547.31 848.122 1525.91 844.922 1505.99 z"/>
<path transform="translate(0,0)" fill="rgb(244,244,244)" d="M 1175.4 851.46 C 1259.49 849.64 1333.76 868.505 1412.99 895.167 C 1420.36 897.65 1448.85 906.596 1453.15 910.191 C 1445.77 908.995 1437.46 906.104 1430.22 903.906 C 1398.39 894.248 1366.09 887.833 1333.28 882.301 C 1290.93 875.245 1253.68 871.267 1211.06 868.973 C 1161.45 866.303 1068.77 887.973 1033.12 850.39 C 1069.61 868.189 1092.46 857.61 1131.52 853.928 C 1147.35 852.436 1159.44 851.839 1175.4 851.46 z"/>
<path transform="translate(0,0)" fill="rgb(0,45,90)" d="M 1286.6 1105.42 C 1290.22 1108.48 1303.34 1139.92 1309.21 1147.85 C 1345.08 1196.31 1381.53 1235.98 1432.93 1268.01 L 1432.77 1268.88 C 1419.65 1265.48 1374.91 1226.89 1363.93 1215.69 C 1331.81 1183.65 1305.25 1149.6 1286.59 1108.2 C 1278.68 1132.54 1270.31 1184.77 1279.84 1209.15 C 1280.56 1210.98 1280.51 1210.06 1279.91 1211.98 C 1273.77 1203.48 1273.82 1179.38 1272.5 1168.79 C 1270.7 1154.41 1277.98 1116.24 1286.6 1105.42 z"/>
</svg>